Coordinates
version=1
nRows=7
nColumns=63
inDegrees=yes

Units are S.I. units (second, meters, Newtons, ...)
If the header above contains a line with 'inDegrees', this indicates whether rotational values are in degrees (yes) or radians (no).

endheader
time	pelvis_tilt	pelvis_list	pelvis_rotation	pelvis_tx	pelvis_ty	pelvis_tz	hip_flexion_r	hip_adduction_r	hip_rotation_r	knee_angle_r	knee_angle_r_beta	ankle_angle_r	subtalar_angle_r	mtp_angle_r	hip_flexion_l	hip_adduction_l	hip_rotation_l	knee_angle_l	knee_angle_l_beta	ankle_angle_l	subtalar_angle_l	mtp_angle_l	L5_S1_Flex_Ext	L5_S1_Lat_Bending	L5_S1_axial_rotation	L4_L5_Flex_Ext	L4_L5_Lat_Bending	L4_L5_axial_rotation	L3_L4_Flex_Ext	L3_L4_Lat_Bending	L3_L4_axial_rotation	L2_L3_Flex_Ext	L2_L3_Lat_Bending	L2_L3_axial_rotation	L1_L2_Flex_Ext	L1_L2_Lat_Bending	L1_L2_axial_rotation	L1_T12_Flex_Ext	L1_T12_Lat_Bending	L1_T12_axial_rotation	Abs_r3	Abs_r2	Abs_r1	Abs_t1	Abs_t2	neck_flexion	neck_bending	neck_rotation	arm_flex_r	arm_add_r	arm_rot_r	elbow_flex_r	pro_sup_r	wrist_flex_r	wrist_dev_r	arm_flex_l	arm_add_l	arm_rot_l	elbow_flex_l	pro_sup_l	wrist_flex_l	wrist_dev_l
      2.81355932	      5.02334228	     -7.13129331	     84.37806264	      0.20704517	      0.97905416	      0.55386254	      0.55316512	      1.17686821	      1.67841564	      3.53653664	      0.06172421	     23.29733578	     11.43174844	      0.00000000	      0.08977415	     -0.29098424	     -0.65939634	      3.20895047	      0.05600675	     20.62558335	    -11.25222922	      0.00000000	     -0.02185559	      0.27820791	     -1.27203439	     -0.04058802	      0.37001652	     -1.35153654	     -0.03590655	      0.67643470	     -1.35153654	     -0.02497875	      0.67643470	     -1.11303009	     -0.02029510	      0.56732156	     -1.03352794	     -0.01248828	      0.43094405	     -0.95402579	     -0.15611229	      3.14714348	     -7.07467364	      0.00000000	      0.00000000	      5.18300073	      4.73263450	     23.59674295	      4.41917247	    -11.55886415	     42.04825622	     28.27673819	     83.10260822	     -5.72106281	      4.71801577	     -2.39507068	    -12.72010165	     34.63038002	     32.64111861	     74.09601518	    -11.12240754	     -3.49725179
      2.83050847	      4.99049958	     -7.01199070	     84.70952066	      0.20675856	      0.97920928	      0.55341373	      0.31905612	      1.13175972	      1.34396914	      3.38594918	      0.05909596	     22.98060272	     11.47537628	      0.00000000	      0.02289275	     -0.29225452	     -1.46447886	      3.44651488	      0.06015303	     20.98038440	     -9.31848592	      0.00000000	     -0.02227626	      0.26946498	     -1.31146591	     -0.04136925	      0.35838843	     -1.39343253	     -0.03659767	      0.65517716	     -1.39343253	     -0.02545954	      0.65517716	     -1.14753267	     -0.02068574	      0.54949299	     -1.06556605	     -0.01272866	      0.41740126	     -0.98359943	     -0.15911713	      3.04824177	     -7.29397995	      0.00000000	      0.00000000	      3.94598310	      4.44372165	     24.67571161	      4.27647404	    -11.49848047	     42.43997169	     28.10091451	     81.39676198	     -5.99571359	      4.50554945	     -2.21270928	    -12.89891623	     35.55607409	     32.59153065	     73.17171869	    -11.14307661	     -3.57162857
      2.84745763	      4.97053394	     -7.03730358	     85.20033867	      0.20622835	      0.97900962	      0.55326276	      0.23509226	      1.16074275	      2.02289198	      3.23082645	      0.05638856	     22.57810095	      9.69447404	      0.00000000	      0.04790705	     -0.20487623	      1.17654587	      3.44912517	      0.06019859	     19.98505616	    -12.28515109	      0.00000000	     -0.01104540	      0.26934603	     -1.42649421	     -0.02051241	      0.35823022	     -1.51565009	     -0.01814649	      0.65488794	     -1.51565009	     -0.01262379	      0.65488794	     -1.24818243	     -0.01025676	      0.54925042	     -1.15902654	     -0.00631134	      0.41721700	     -1.06987065	     -0.07889619	      3.04689615	     -7.93373283	      0.00000000	      0.00000000	      3.15711569	      4.43055959	     26.85518813	      4.25824631	    -11.40027147	     42.54010274	     27.89546538	     80.62522318	     -5.68491004	      4.42332098	     -2.34536430	    -12.96588713	     35.55273628	     32.64452751	     73.12436231	    -11.30150859	     -4.02746423
      2.86440678	      4.93949801	     -6.93952262	     85.34017487	      0.20599374	      0.97919911	      0.55337437	      0.10659012	      1.12088661	      2.12577299	      3.17085425	      0.05534185	     22.32286650	      9.15413863	      0.00000000	      0.05840833	     -0.22824444	     -0.60870533	      3.76714382	      0.06574906	     20.65070515	     -9.23495796	      0.00000000	     -0.02020555	      0.26457989	     -1.44383485	     -0.03752372	      0.35189125	     -1.53407453	     -0.03319569	      0.64329954	     -1.53407453	     -0.02309292	      0.64329954	     -1.26335549	     -0.01876287	      0.53953130	     -1.17311582	     -0.01154545	      0.40983424	     -1.08287614	     -0.14432619	      2.99298059	     -8.03017629	      0.00000000	      0.00000000	      2.71233153	      4.12689411	     28.26199918	      4.37536903	    -11.45560260	     43.56986904	     27.69437996	     78.62660883	     -5.74091222	      4.26410337	     -2.11967705	    -13.13949634	     36.57971288	     32.57548230	     72.11358504	    -11.47684834	     -4.29403053
      2.88135593	      4.91947864	     -7.03610121	     85.89072716	      0.20520317	      0.97895659	      0.55320652	      0.11151981	      1.11798489	      2.19394744	      3.06288571	      0.05345744	     22.05123245	      8.02207926	      0.00000000	      0.16413254	     -0.11421625	      2.61449216	      3.73922249	      0.06526174	     19.46235991	    -13.03734729	      0.00000000	      0.00493517	      0.26514885	     -1.55344347	      0.00916511	      0.35264797	     -1.65053369	      0.00810800	      0.64468292	     -1.65053369	      0.00564041	      0.64468292	     -1.35926304	      0.00458280	      0.54069154	     -1.26217282	      0.00281996	      0.41071557	     -1.16508261	      0.03525145	      2.99941684	     -8.63978657	      0.00000000	      0.00000000	      2.49989741	      3.63058447	     29.66573284	      4.25892082	    -11.37158255	     43.14317440	     27.56118628	     79.06050741	     -5.35969662	      4.50681154	     -2.39020681	    -13.06302371	     35.72384862	     32.74480282	     72.92401208	    -11.31190370	     -4.02194414
      2.89830508	      4.86844538	     -7.16228046	     85.97670235	      0.20494044	      0.97882235	      0.55342448	      0.25777668	      1.05204405	      1.97747815	      3.05755135	      0.05336434	     21.98445108	      8.01574806	      0.00000000	      0.34893398	     -0.07134968	      2.60250054	      3.82185866	      0.06670402	     19.50787179	    -12.70303457	      0.00000000	      0.02751525	      0.25657933	     -1.54707054	      0.05109858	      0.34125051	     -1.64376244	      0.04520481	      0.62384698	     -1.64376244	      0.03144718	      0.62384698	     -1.35368672	      0.02555066	      0.52321657	     -1.25699481	      0.01572222	      0.39744138	     -1.16030290	      0.19653870	      2.90247668	     -8.60434220	      0.00000000	      0.00000000	      2.66632384	      3.21473797	     29.92843925	      4.16909286	    -11.38974161	     43.17936551	     27.51392544	     78.83953058	     -5.31882477	      4.59406402	     -2.34360422	    -13.10332177	     35.82481014	     32.78781550	     72.71907514	    -11.20223015	     -3.79333271
      2.91525424	      4.86118752	     -7.01905973	     86.40884420	      0.20424302	      0.97919293	      0.55408136	      0.12729203	      1.03092080	      1.52535573	      3.06037029	      0.05341354	     21.94760123	      7.78481780	      0.00000000	      0.42044475	     -0.09751667	      1.41149648	      4.08775606	      0.07134480	     20.13137785	    -10.55046134	      0.00000000	     -0.01257675	      0.25295681	     -1.63593376	     -0.02335629	      0.33643256	     -1.73817962	     -0.02066235	      0.61503920	     -1.73817962	     -0.01437397	      0.61503920	     -1.43144204	     -0.01167877	      0.51582953	     -1.32919618	     -0.00718636	      0.39183010	     -1.22695032	     -0.08983449	      2.86149806	     -9.09857278	      0.00000000	      0.00000000	      2.94137280	      3.02806905	     30.88886043	      4.51020219	    -11.40373626	     44.05881339	     27.24070057	     78.31035506	     -5.30441249	      4.18754295	     -1.98693302	    -13.13577879	     36.50424772	     32.42283924	     72.40277341	    -11.39328873	     -4.20073294
